<svg width="84" height="24" viewBox="0 0 84 24" fill="none" xmlns="http://www.w3.org/2000/svg">
<rect x="79.9709" y="0.707336" width="3.69571" height="22.5849" fill="white"/>
<path fill-rule="evenodd" clip-rule="evenodd" d="M0 2.3501H3.69571V10.9736H13.1403V2.3503H16.836V23.2926H13.1403V14.6693H3.69571V23.2924H0V2.3501Z" fill="white"/>
<path d="M45.5242 23.292C41.9477 23.292 38.2086 17.3186 43.465 13.7448L46.8248 19.0034L49.1549 16.9612L57.2835 23.292H45.5242Z" fill="white"/>
<path d="M52.6173 6.6615C56.1939 6.6615 59.933 12.6349 54.6766 16.2087L51.3168 10.9501L48.9866 12.9923L40.8581 6.6615H52.6173Z" fill="#9DD75C"/>
<path fill-rule="evenodd" clip-rule="evenodd" d="M33.4667 20.8732C32.0189 22.3683 30.0236 23.2922 27.8205 23.2922C23.3981 23.2922 19.8131 19.5693 19.8131 14.9769C19.8131 10.3845 23.3981 6.66156 27.8205 6.66156C30.0236 6.66156 32.0189 7.58551 33.4667 9.08064V6.66166H37.1624V23.2923H33.4667V20.8732ZM32.8508 14.9772C32.8508 17.6986 30.7365 19.9048 28.1285 19.9048C25.5204 19.9048 23.4062 17.6986 23.4062 14.9772C23.4062 12.2557 25.5204 10.0496 28.1285 10.0496C30.7365 10.0496 32.8508 12.2557 32.8508 14.9772Z" fill="white"/>
<path fill-rule="evenodd" clip-rule="evenodd" d="M76.9939 14.9769C76.9939 15.3955 76.963 15.8069 76.9033 16.2089H73.2693C73.2693 16.2089 73.2693 16.2089 73.2694 16.2089H64.0877C64.5874 18.5059 66.4532 20.2125 68.6785 20.2125C70.289 20.2125 71.7112 19.3187 72.5635 17.9541H76.445C75.2475 21.076 72.2219 23.2922 68.6786 23.2922C64.0861 23.2922 60.3632 19.5693 60.3632 14.9769C60.3632 10.3845 64.0861 6.66156 68.6786 6.66156C73.271 6.66156 76.9939 10.3845 76.9939 14.9769ZM68.6785 9.74131C66.6572 9.74131 64.9324 11.1494 64.2588 13.1291H73.0983C72.4246 11.1494 70.6999 9.74131 68.6785 9.74131Z" fill="white"/>
</svg>
