<?xml version="1.0" encoding="UTF-8"?>
<svg width="22px" height="22px" viewBox="0 0 22 22" version="1.1" xmlns="http://www.w3.org/2000/svg" xmlns:xlink="http://www.w3.org/1999/xlink">
    <!-- Generator: Sketch 48.1 (47250) - http://www.bohemiancoding.com/sketch -->
    <title>Fill 1</title>
    <desc>Created with Sketch.</desc>
    <defs></defs>
    <g id="icon/logo/white" stroke="none" stroke-width="1" fill="none" fill-rule="evenodd" transform="translate(-4.000000, -4.000000)">
        <path d="M18.666725,15.0001009 C18.666725,17.0219319 17.021869,18.6667879 15.0000379,18.6667879 C12.9782068,18.6667879 11.3333508,17.0219319 11.3333508,15.0001009 C11.3333508,12.9782698 12.9782068,11.3334138 15.0000379,11.3334138 L18.666725,11.3334138 L18.666725,15.0001009 Z M26,4.69964353 C26,4.3133531 25.6868451,4 25.3005547,4 L14.9999388,4 C8.75249861,4 3.72160575,9.20828124 4.01196772,15.5195416 C4.27121241,21.1549423 8.84505768,25.7289858 14.4804584,25.9882305 C20.791917,26.2785925 26,21.2475014 26,15.0000612 L26,4.69964353 Z M22.4324126,15.0000612 C22.4324126,19.0984264 19.0983039,22.4327332 14.9999388,22.4327332 C10.9017718,22.4327332 7.56746499,19.0984264 7.56746499,15.0000612 C7.56746499,10.9016961 10.9017718,7.56758742 14.9999388,7.56758742 L17.3751592,7.56758742 L22.4324126,7.56758742 L22.4324126,15.0000612 Z" id="Fill-1" fill="#FFFFFF"></path>
    </g>
</svg>